<svg xmlns="http://www.w3.org/2000/svg" viewBox="0 0 120 120">
<style>
.ln{fill:none;stroke-linecap:round;stroke-linejoin:round}
.oil{stroke:#198754}
.main{stroke-width:2.4}.mid{stroke-width:1.8}.fine{stroke-width:1.2}.vfine{stroke-width:0.9}
</style>
<!-- cork + grain -->
<rect class="ln oil mid" x="51" y="10" width="18" height="11" rx="3"/>
<path class="ln oil vfine" d="M55 14 H65 M55 17.5 H65"/>
<!-- neck, shoulders, body -->
<path class="ln oil main" d="M54 21 L 66 21 L 66 36 C 66 41 88 48 88 62 L 88 100 A 9 9 0 0 1 79 109 L 41 109 A 9 9 0 0 1 32 100 L 32 62 C 32 48 54 41 54 36 Z"/>
<!-- neck collar -->
<path class="ln oil fine" d="M54 27 H 66"/>
<!-- body highlight streak -->
<path class="ln oil vfine" d="M38 64 C 36 76 36 90 40 100"/>
<!-- oil surface line -->
<path class="ln oil fine" d="M34 66 C 46 71 60 63 72 69 C 80 72 85 68 86 66"/>
<!-- oil bubbles -->
<circle class="ln oil vfine" cx="47" cy="76" r="2.2"/>
<circle class="ln oil vfine" cx="56" cy="82" r="1.5"/>
<circle class="ln oil vfine" cx="50" cy="88" r="1.2"/>
<!-- label with a little sprig motif -->
<rect class="ln oil mid" x="40" y="80" width="40" height="22" rx="3"/>
<path class="ln oil vfine" d="M60 84 C 56 86 54 90 55 94 C 59 93 61 89 60 85 Z"/>
<path class="ln oil vfine" d="M56 92 L 63 88"/>
<path class="ln oil fine" d="M46 98 H 74"/>
</svg>
